<svg version="1.2" xmlns="http://www.w3.org/2000/svg" viewBox="0 0 1188 375" width="1188" height="375">
	<style>
		.s0 { fill: #ffffff } 
	</style>
	<g id="Layer 1">
		<path id="OWN PASSWORD" class="s0" aria-label="OWN
PASSWORD"  d="m98.3 181.7q-16.2 0-29.9-5.4-13.5-5.4-23.7-15.1-10.1-9.6-15.7-22.7-5.6-13.2-5.6-28.4 0-15.4 5.4-28.4 5.6-12.9 15.7-22.6 10-9.6 23.5-14.8 13.7-5.4 29.9-5.4 16.2 0 29.8 5.4 13.7 5.2 23.7 14.8 10 9.7 15.4 22.8 5.6 13 5.6 28.4 0 15.2-5.6 28.4-5.4 12.9-15.4 22.7-10 9.7-23.5 15.1-13.6 5.2-29.6 5.2zm-0.4-34q10.8 0 18.8-4.6 7.9-4.6 12.1-13.1 4.3-8.5 4.3-19.9 0-8.5-2.5-15.2-2.4-7-7-11.8-4.6-5-11.2-7.5-6.4-2.8-14.5-2.8-10.8 0-18.7 4.7-7.9 4.4-12.1 12.9-4.3 8.3-4.3 19.7 0 8.7 2.3 15.6 2.5 7 7.2 12 4.6 4.8 11 7.5 6.5 2.5 14.6 2.5zm154.9 31.3h-32l-43.3-137.4h38.5l30.4 105.7h-17.7l30.1-105.7h31.8l30.2 105.7h-17.6l30.5-105.7h38l-43.2 137.4h-32.1l-30.1-105.6h16.6zm175.2 0h-38.6v-137.4h27l11.6 29zm68.1-37.3l-12.1 37.3-79.7-100.2 12.1-37.3zm16.8 37.3h-28.9l-9.7-30.5v-106.9h38.6zm-418.8 121.7h-32.4v-27.8h24.8q4.5 0 8.2-1.7 3.8-1.9 6.1-5.6 2.3-3.9 2.3-9.5 0-5.6-2.3-9.2-2.3-3.9-6.1-5.6-3.7-1.9-8.2-1.9h-24.8v-27.8h32.4q13.3 0 23.9 5.4 10.8 5.2 17 15.2 6.4 9.9 6.4 23.9 0 13.9-6.4 24-6.2 10-17 15.4-10.6 5.2-23.9 5.2zm-25.1 48.3h-38.6v-137.4h38.6zm111.5 0h-39.3l52.3-137.5h39.3l51.8 137.5h-40.2l-38.4-116.8h13.9zm71.4-23.2h-76.8v-30.1h76.8zm89.8 25.5q-17.5 0-30.6-5-13-5.2-24-16.4l24.2-24.1q7.5 7.1 15.8 11 8.3 3.6 17.7 3.6 7.9 0 12-2.3 4.1-2.5 4.1-6.7 0-4.3-3.5-7-3.5-2.9-9.3-5-5.6-2.3-12.5-4.6-6.8-2.4-13.5-5.6-6.8-3.3-12.6-8-5.6-4.8-9.1-11.7-3.4-7.2-3.4-17.4 0-13.3 6.3-23 6.4-9.6 18-14.6 11.6-5.2 27.2-5.2 15.4 0 28.6 5 13.3 4.8 22 13.9l-24.3 24.1q-6.4-6.2-12.8-9.1-6.4-3.1-13.9-3.1-6 0-9.6 2-3.5 1.9-3.5 5.8 0 4 3.5 6.7 3.4 2.5 9 4.6 5.8 2.2 12.6 4.5 6.9 2.3 13.7 5.6 6.7 3.1 12.3 8.1 5.8 4.8 9.3 12.1 3.5 7.4 3.5 17.8 0 21-15.1 32.6-14.8 11.4-42.1 11.4zm118 0q-17.5 0-30.6-5-13-5.2-24-16.4l24.2-24.1q7.5 7.1 15.8 11 8.3 3.6 17.7 3.6 7.9 0 12-2.3 4.1-2.5 4.1-6.7 0-4.3-3.5-7-3.5-2.9-9.3-5-5.6-2.3-12.5-4.6-6.8-2.4-13.5-5.6-6.8-3.3-12.6-8-5.6-4.8-9.1-11.7-3.4-7.2-3.4-17.4 0-13.3 6.3-23 6.4-9.6 18-14.6 11.6-5.2 27.2-5.2 15.4 0 28.6 5 13.3 4.8 22 13.9l-24.3 24.1q-6.4-6.2-12.8-9.1-6.4-3.1-13.9-3.1-6 0-9.6 2-3.5 1.9-3.5 5.8 0 4 3.5 6.7 3.4 2.5 9 4.6 5.8 2.2 12.6 4.5 6.9 2.3 13.7 5.6 6.7 3.1 12.3 8.1 5.8 4.8 9.3 12.1 3.5 7.4 3.5 17.8 0 21-15.1 32.6-14.8 11.4-42.1 11.4zm141.1-2.3h-32.1l-43.2-137.4h38.4l30.5 105.7h-17.7l30.1-105.7h31.8l30.1 105.7h-17.5l30.5-105.7h38l-43.3 137.4h-32l-30.1-105.6h16.6zm199.5 2.7q-16.2 0-29.9-5.4-13.5-5.4-23.8-15-10-9.7-15.6-22.8-5.6-13.1-5.6-28.4 0-15.4 5.4-28.4 5.6-12.9 15.7-22.5 10-9.7 23.5-14.9 13.7-5.4 29.9-5.4 16.2 0 29.7 5.4 13.7 5.2 23.8 14.9 10 9.6 15.4 22.7 5.6 13 5.6 28.4 0 15.3-5.6 28.4-5.4 12.9-15.4 22.8-10.1 9.6-23.6 15-13.5 5.2-29.5 5.2zm-0.4-33.9q10.8 0 18.7-4.7 8-4.6 12.2-13.1 4.2-8.5 4.2-19.9 0-8.5-2.5-15.2-2.3-7-6.9-11.8-4.6-5-11.2-7.5-6.4-2.7-14.5-2.7-10.8 0-18.7 4.6-7.9 4.4-12.2 12.9-4.2 8.3-4.2 19.7 0 8.7 2.3 15.7 2.5 6.9 7.1 11.9 4.7 4.8 11 7.5 6.6 2.6 14.7 2.6zm153.3-23.6h-27.6v-26.6h23.4q7.9 0 12-3.9 4.2-3.8 4.2-10.2 0-6.4-4.2-10.2-4.1-3.9-12-3.9h-23.4v-27.8h29.6q14.2 0 25.1 5.2 10.8 5.2 16.9 14.5 6.2 9.3 6.2 21.6 0 12.4-6.4 21.6-6.1 9.3-17.3 14.5-11.2 5.2-26.5 5.2zm-20.2 54.8h-38.6v-137.4h38.6zm79.3 0h-43.8l-37.5-58.7 34.8-7.5zm71.3 0h-32.4v-32.8h32.1q10.8 0 18.7-3.9 7.9-4 12.1-12.1 4.3-8.1 4.3-20.1 0-12-4.5-19.9-4.2-7.9-12.1-11.7-7.7-4.1-18.5-4.1h-34v-32.8h34q16.2 0 29.7 4.8 13.7 4.8 23.7 13.9 10.1 9.1 15.5 21.8 5.6 12.6 5.6 28.2 0 15.6-5.6 28.4-5.4 12.5-15.5 21.6-10 9.1-23.5 13.9-13.5 4.8-29.6 4.8zm-19.6 0h-38.6v-137.4h38.6z"/>
	</g>
</svg>